<svg width="484" height="484" viewBox="0 0 484 484" fill="none" xmlns="http://www.w3.org/2000/svg">
<g clip-path="url(#clip0_1693_3768)">
<path d="M484 0H0V484H484V0Z" fill="white"/>
<path d="M245.587 95.0073C335.616 95.0073 408.713 168.104 408.713 258.133C408.713 348.162 335.616 421.259 245.587 421.259C155.558 421.259 82.4609 348.162 82.4609 258.133C82.4609 168.104 155.558 95.0073 245.587 95.0073Z" fill="#F9F9F9"/>
<g opacity="0.999998">
<path d="M124.365 275.88C124.365 277.364 123.161 278.569 121.677 278.569H100.165C98.6815 278.569 97.4766 277.364 97.4766 275.88C97.4766 274.396 98.6815 273.191 100.165 273.191H121.677C123.161 273.191 124.365 274.396 124.365 275.88Z" fill="#E6E6E6"/>
<path d="M103.258 268.889C105.558 268.889 107.425 270.756 107.425 273.056C107.425 275.357 105.558 277.224 103.258 277.224C100.957 277.224 99.0898 275.357 99.0898 273.056C99.0898 270.756 100.957 268.889 103.258 268.889Z" fill="#E6E6E6"/>
<path d="M119.17 270.253C121.01 270.253 122.504 271.747 122.504 273.588C122.504 275.428 121.01 276.922 119.17 276.922C117.33 276.922 115.836 275.428 115.836 273.588C115.836 271.747 117.33 270.253 119.17 270.253Z" fill="#E6E6E6"/>
<path d="M111.998 262.436C116.005 262.436 119.258 265.689 119.258 269.696C119.258 273.702 116.005 276.956 111.998 276.956C107.991 276.956 104.738 273.702 104.738 269.696C104.738 265.689 107.991 262.436 111.998 262.436Z" fill="#E6E6E6"/>
</g>
<path d="M134.485 356.502C134.485 357.286 134.28 357.922 134.028 357.922H107.973C107.72 357.922 107.516 357.286 107.516 356.502C107.516 355.718 107.72 355.081 107.973 355.081H134.028C134.28 355.081 134.485 355.718 134.485 356.502Z" fill="#22253C"/>
<path d="M348.774 356.502C348.774 357.286 348.596 357.922 348.376 357.922H325.641C325.421 357.922 325.242 357.286 325.242 356.502C325.242 355.718 325.421 355.081 325.641 355.081H348.376C348.596 355.081 348.774 355.718 348.774 356.502Z" fill="#22253C"/>
<path d="M376.448 356.502C376.448 357.286 376.291 357.922 376.098 357.922H356.174C355.981 357.922 355.824 357.286 355.824 356.502C355.824 355.718 355.981 355.081 356.174 355.081H376.098C376.291 355.081 376.448 355.718 376.448 356.502Z" fill="#22253C"/>
<path d="M318.315 356.502C318.315 357.286 316.986 357.922 315.348 357.922H146.244C144.607 357.922 143.277 357.286 143.277 356.502C143.277 355.718 144.607 355.081 146.244 355.081H315.348C316.986 355.081 318.315 355.718 318.315 356.502Z" fill="#22253C"/>
<path d="M148.563 320.874C140.048 318.633 139.152 330.061 139.152 329.837C123.915 324.011 128.172 337.007 128.172 337.455C119.881 338.128 124.363 345.97 124.363 346.194C116.744 350.9 126.827 356.053 126.827 356.053C126.827 356.053 163.8 355.381 163.576 355.605C171.194 346.866 160.215 342.833 160.215 342.833C163.127 341.041 162.455 335.887 162.231 336.111C160.663 330.285 151.924 333.198 152.148 333.422C157.302 324.683 148.787 320.65 148.563 320.874Z" fill="#E6E6E6"/>
<path d="M193.6 184.637V241.104C193.6 252.976 183.961 262.615 172.089 262.615C160.217 262.615 150.578 252.976 150.578 241.104V184.637C150.578 172.765 160.217 163.126 172.089 163.126C183.961 163.126 193.6 172.765 193.6 184.637Z" fill="#F2F2F2"/>
<path d="M172.984 356.726V198.978" stroke="#D9D7D7" stroke-width="10"/>
<path d="M172.762 231.468L180.38 220.265" stroke="#D9D7D7" stroke-width="7"/>
<path d="M165.145 206.372L173.659 221.833" stroke="#D9D7D7" stroke-width="7"/>
<path d="M143.122 215.129V261.432C143.122 271.167 135.218 279.071 125.483 279.071C115.748 279.071 107.844 271.167 107.844 261.432V215.129C107.844 205.394 115.748 197.49 125.483 197.49C135.218 197.49 143.122 205.394 143.122 215.129Z" fill="#F2F2F2"/>
<path d="M126.219 356.242V226.888" stroke="#D9D7D7" stroke-width="8.2"/>
<path d="M126.035 253.531L132.282 244.344" stroke="#D9D7D7" stroke-width="5.74"/>
<path d="M119.785 232.952L126.767 245.63" stroke="#D9D7D7" stroke-width="5.74"/>
<path d="M300.474 257.627H298.286L294.051 355.597L307.038 355.314L300.474 257.627Z" fill="#E6E6E6"/>
<path d="M299.556 260.148C297.473 260.447 295.54 259 295.24 256.918C294.94 254.836 296.387 252.902 298.469 252.602C300.551 252.303 302.485 253.75 302.785 255.832C303.085 257.914 301.638 259.848 299.556 260.148Z" fill="#E6E6E6"/>
<path d="M285.077 257.668L292.101 254.945L298.13 255.218L244.682 232.677L250.24 239.579L285.077 257.668Z" fill="#E6E6E6"/>
<path d="M306.906 265.801L300.816 261.366L297.784 256.147L307.737 313.294L310.536 304.887L306.906 265.801Z" fill="#E6E6E6"/>
<path d="M303.226 243.492L302.02 250.928L298.734 255.991L345.223 221.298L336.458 222.599L303.226 243.492Z" fill="#E6E6E6"/>
<path d="M276.958 324.011H207.943L200.324 349.556L283.68 350.004L276.958 324.011Z" fill="#E66045"/>
<path d="M299.364 345.971V358.743H184.414V345.971H299.364Z" fill="#C3523B"/>
<path d="M267.992 297.571H215.559L210.629 313.704H273.37L267.992 297.571Z" fill="#E66045"/>
<path d="M247.829 222.73H236.177L218.699 285.919H266.203L247.829 222.73Z" fill="#E66045"/>
<path d="M360.648 199.426H357.175L350.453 354.933L371.068 354.485L360.648 199.426Z" fill="#E6E6E6"/>
<path d="M359.191 203.427C355.886 203.903 352.817 201.606 352.341 198.301C351.865 194.996 354.162 191.926 357.467 191.45C360.772 190.975 363.842 193.272 364.318 196.577C364.793 199.882 362.496 202.951 359.191 203.427Z" fill="#E6E6E6"/>
<path d="M336.214 199.491L347.364 195.169L356.935 195.603L272.097 159.823L280.918 170.777L336.214 199.491Z" fill="#E6E6E6"/>
<path d="M370.864 212.401L361.198 205.361L356.385 197.077L372.184 287.786L376.626 274.441L370.864 212.401Z" fill="#E6E6E6"/>
<path d="M365.024 176.989L363.109 188.793L357.892 196.829L431.684 141.76L417.771 143.825L365.024 176.989Z" fill="#E6E6E6"/>
<path d="M360.086 320.874C351.571 318.633 350.675 330.061 350.675 329.837C335.438 324.011 339.695 337.007 339.695 337.455C331.405 338.128 335.886 345.97 335.886 346.194C328.268 350.9 338.351 356.053 338.351 356.053C338.351 356.053 375.323 355.381 375.099 355.605C382.718 346.866 371.738 342.833 371.738 342.833C374.651 341.041 373.979 335.887 373.755 336.111C372.186 330.285 363.447 333.198 363.671 333.422C368.825 324.683 360.31 320.65 360.086 320.874Z" fill="#D4D1D1"/>
<g opacity="0.999998">
<path d="M316.096 177.466C316.096 179.94 314.088 181.948 311.615 181.948H275.763C273.289 181.948 271.281 179.94 271.281 177.466C271.281 174.993 273.289 172.985 275.763 172.985H311.615C314.088 172.985 316.096 174.993 316.096 177.466Z" fill="#E6E6E6"/>
<path d="M280.915 165.814C284.749 165.814 287.861 168.927 287.861 172.761C287.861 176.594 284.749 179.707 280.915 179.707C277.081 179.707 273.969 176.594 273.969 172.761C273.969 168.927 277.081 165.814 280.915 165.814Z" fill="#E6E6E6"/>
<path d="M307.436 168.089C310.503 168.089 312.993 170.579 312.993 173.646C312.993 176.713 310.503 179.203 307.436 179.203C304.369 179.203 301.879 176.713 301.879 173.646C301.879 170.579 304.369 168.089 307.436 168.089Z" fill="#E6E6E6"/>
<path d="M295.483 155.059C302.161 155.059 307.583 160.481 307.583 167.159C307.583 173.837 302.161 179.259 295.483 179.259C288.805 179.259 283.383 173.837 283.383 167.159C283.383 160.481 288.805 155.059 295.483 155.059Z" fill="#E6E6E6"/>
</g>
</g>
<defs>
<clipPath id="clip0_1693_3768">
<rect width="484" height="484" fill="white"/>
</clipPath>
</defs>
</svg>
