<svg width="125" height="23" viewBox="0 0 125 23" fill="none" xmlns="http://www.w3.org/2000/svg">
<path d="M0.896307 22V0.181818H15.598V3.98508H5.50923V9.18395H14.8416V12.9872H5.50923V18.1967H15.6406V22H0.896307ZM25.03 22.2663C23.7872 22.2663 22.6614 21.9467 21.6529 21.3075C20.6515 20.6612 19.856 19.7131 19.2666 18.4631C18.6842 17.206 18.393 15.6648 18.393 13.8395C18.393 11.9645 18.6948 10.4055 19.2985 9.16264C19.9022 7.91264 20.7048 6.97869 21.7062 6.3608C22.7147 5.7358 23.8191 5.4233 25.0194 5.4233C25.9356 5.4233 26.6991 5.57955 27.3099 5.89205C27.9278 6.19744 28.4249 6.58097 28.8014 7.04261C29.1849 7.49716 29.4761 7.9446 29.6749 8.38494H29.8134V0.181818H34.3411V22H29.8667V19.3793H29.6749C29.4619 19.8338 29.16 20.2848 28.7694 20.7322C28.3859 21.1726 27.8852 21.5384 27.2673 21.8295C26.6565 22.1207 25.9107 22.2663 25.03 22.2663ZM26.4683 18.6548C27.1998 18.6548 27.8177 18.456 28.322 18.0582C28.8333 17.6534 29.2239 17.0888 29.4938 16.3643C29.7708 15.6399 29.9093 14.7912 29.9093 13.8182C29.9093 12.8452 29.7744 12 29.5045 11.2827C29.2346 10.5653 28.844 10.0114 28.3326 9.62074C27.8212 9.23011 27.1998 9.0348 26.4683 9.0348C25.7225 9.0348 25.094 9.23722 24.5826 9.64204C24.0712 10.0469 23.6842 10.608 23.4214 11.3253C23.1586 12.0426 23.0272 12.8736 23.0272 13.8182C23.0272 14.7699 23.1586 15.6115 23.4214 16.343C23.6913 17.0675 24.0783 17.6357 24.5826 18.0476C25.094 18.4524 25.7225 18.6548 26.4683 18.6548ZM65.1956 0.181818H69.7553V15.3949C69.7553 16.8011 69.4392 18.0227 68.8071 19.0597C68.1821 20.0966 67.3121 20.8956 66.197 21.4567C65.082 22.0178 63.7858 22.2983 62.3085 22.2983C60.9946 22.2983 59.8014 22.0675 58.729 21.6058C57.6637 21.1371 56.8185 20.4268 56.1935 19.4751C55.5685 18.5163 55.2595 17.3125 55.2666 15.8636H59.8583C59.8725 16.4389 59.9897 16.9325 60.2098 17.3445C60.4371 17.7493 60.746 18.0618 61.1367 18.282C61.5344 18.495 62.0031 18.6016 62.5429 18.6016C63.1111 18.6016 63.5905 18.4808 63.9811 18.2393C64.3789 17.9908 64.6807 17.6286 64.8867 17.1527C65.0926 16.6768 65.1956 16.0909 65.1956 15.3949V0.181818ZM80.6974 22.3196C79.0426 22.3196 77.6115 21.968 76.4041 21.2649C75.2038 20.5547 74.277 19.5675 73.6236 18.3033C72.9702 17.032 72.6435 15.5582 72.6435 13.8821C72.6435 12.1918 72.9702 10.7145 73.6236 9.45028C74.277 8.17898 75.2038 7.19176 76.4041 6.48864C77.6115 5.77841 79.0426 5.4233 80.6974 5.4233C82.3523 5.4233 83.7798 5.77841 84.9801 6.48864C86.1875 7.19176 87.1179 8.17898 87.7713 9.45028C88.4247 10.7145 88.7514 12.1918 88.7514 13.8821C88.7514 15.5582 88.4247 17.032 87.7713 18.3033C87.1179 19.5675 86.1875 20.5547 84.9801 21.2649C83.7798 21.968 82.3523 22.3196 80.6974 22.3196ZM80.7187 18.804C81.4716 18.804 82.1001 18.5909 82.6044 18.1648C83.1087 17.7315 83.4886 17.142 83.7443 16.3963C84.0071 15.6506 84.1385 14.8018 84.1385 13.8501C84.1385 12.8984 84.0071 12.0497 83.7443 11.304C83.4886 10.5582 83.1087 9.96875 82.6044 9.53551C82.1001 9.10227 81.4716 8.88565 80.7187 8.88565C79.9588 8.88565 79.3196 9.10227 78.8011 9.53551C78.2898 9.96875 77.9027 10.5582 77.6399 11.304C77.3842 12.0497 77.2564 12.8984 77.2564 13.8501C77.2564 14.8018 77.3842 15.6506 77.6399 16.3963C77.9027 17.142 78.2898 17.7315 78.8011 18.1648C79.3196 18.5909 79.9588 18.804 80.7187 18.804ZM91.6076 22V0.181818H96.146V8.38494H96.2845C96.4833 7.9446 96.771 7.49716 97.1474 7.04261C97.5309 6.58097 98.0281 6.19744 98.6389 5.89205C99.2568 5.57955 100.024 5.4233 100.94 5.4233C102.133 5.4233 103.234 5.7358 104.243 6.3608C105.251 6.97869 106.057 7.91264 106.661 9.16264C107.265 10.4055 107.566 11.9645 107.566 13.8395C107.566 15.6648 107.272 17.206 106.682 18.4631C106.1 19.7131 105.304 20.6612 104.296 21.3075C103.294 21.9467 102.172 22.2663 100.929 22.2663C100.049 22.2663 99.2994 22.1207 98.6815 21.8295C98.0707 21.5384 97.57 21.1726 97.1794 20.7322C96.7887 20.2848 96.4904 19.8338 96.2845 19.3793H96.0821V22H91.6076ZM96.0501 13.8182C96.0501 14.7912 96.185 15.6399 96.4549 16.3643C96.7248 17.0888 97.1154 17.6534 97.6268 18.0582C98.1382 18.456 98.7596 18.6548 99.4912 18.6548C100.23 18.6548 100.855 18.4524 101.366 18.0476C101.878 17.6357 102.265 17.0675 102.527 16.343C102.797 15.6115 102.932 14.7699 102.932 13.8182C102.932 12.8736 102.801 12.0426 102.538 11.3253C102.275 10.608 101.888 10.0469 101.377 9.64204C100.865 9.23722 100.237 9.0348 99.4912 9.0348C98.7525 9.0348 98.1275 9.23011 97.6162 9.62074C97.1119 10.0114 96.7248 10.5653 96.4549 11.2827C96.185 12 96.0501 12.8452 96.0501 13.8182ZM124.03 10.3026L119.875 10.5582C119.804 10.2031 119.651 9.88352 119.417 9.59943C119.182 9.30824 118.873 9.07741 118.49 8.90696C118.114 8.7294 117.663 8.64062 117.137 8.64062C116.434 8.64062 115.841 8.78977 115.358 9.08807C114.875 9.37926 114.633 9.76989 114.633 10.2599C114.633 10.6506 114.79 10.9808 115.102 11.2507C115.415 11.5206 115.951 11.7372 116.711 11.9006L119.672 12.4972C121.263 12.8239 122.449 13.3494 123.231 14.0739C124.012 14.7983 124.403 15.75 124.403 16.929C124.403 18.0014 124.087 18.9425 123.454 19.7521C122.829 20.5618 121.97 21.1939 120.876 21.6484C119.79 22.0959 118.536 22.3196 117.116 22.3196C114.949 22.3196 113.224 21.8686 111.938 20.9666C110.66 20.0575 109.91 18.8217 109.69 17.2592L114.154 17.0249C114.289 17.6854 114.616 18.1896 115.134 18.5376C115.653 18.8786 116.317 19.049 117.126 19.049C117.922 19.049 118.561 18.8963 119.044 18.5909C119.534 18.2784 119.783 17.8771 119.79 17.3871C119.783 16.9751 119.609 16.6378 119.268 16.375C118.927 16.1051 118.401 15.8991 117.691 15.7571L114.857 15.1925C113.259 14.8729 112.07 14.3189 111.288 13.5305C110.514 12.7422 110.127 11.7372 110.127 10.5156C110.127 9.46449 110.411 8.55895 110.979 7.79901C111.555 7.03906 112.361 6.45313 113.398 6.04119C114.442 5.62926 115.663 5.4233 117.062 5.4233C119.129 5.4233 120.756 5.86009 121.942 6.73366C123.135 7.60724 123.831 8.79687 124.03 10.3026Z" fill="white"/>
<path d="M48.3861 15.0327V5.63636H52.9244V22H48.5672V19.0277H48.3967C48.0274 19.9865 47.4131 20.7571 46.5537 21.3395C45.7014 21.9219 44.661 22.2131 43.4323 22.2131C42.3385 22.2131 41.3762 21.9645 40.5452 21.4673C39.7142 20.9702 39.0644 20.2635 38.5956 19.3473C38.134 18.4311 37.8996 17.3338 37.8925 16.0554V5.63636H42.4308V15.2457C42.4379 16.2116 42.6972 16.9751 43.2085 17.5362C43.7199 18.0973 44.4053 18.3778 45.2646 18.3778C45.8115 18.3778 46.3229 18.2536 46.7987 18.005C47.2746 17.7493 47.6581 17.3729 47.9493 16.8757C48.2476 16.3786 48.3932 15.7642 48.3861 15.0327Z" fill="#FFAE34"/>
</svg>
