<svg width="23" height="20" viewBox="0 0 23 20" fill="none" xmlns="http://www.w3.org/2000/svg">
<path d="M7.05882 11.7647C8.68353 11.7647 10.1541 11.1059 11.2188 10.0412C12.2824 8.97765 12.9412 7.50706 12.9412 5.88235C12.9412 4.25765 12.2824 2.78706 11.2188 1.72353C10.1541 0.658824 8.68353 0 7.05882 0C5.43412 0 3.96353 0.658824 2.89882 1.72353C1.83529 2.78706 1.17647 4.25765 1.17647 5.88235C1.17647 7.50706 1.83529 8.97765 2.89882 10.0412C3.44448 10.5884 4.09291 11.0223 4.80682 11.3181C5.52073 11.6139 6.28606 11.7657 7.05882 11.7647ZM7.05882 20C11.1976 20 14.1176 18.8235 14.1176 17.6471C14.1176 15.2941 11.3482 12.9412 7.05882 12.9412C2.64706 12.9412 0 15.2941 0 17.6471C0 18.8235 2.64706 20 7.05882 20ZM21.1765 9.41177H18.8235V7.05882C18.8235 6.7468 18.6996 6.44756 18.479 6.22693C18.2583 6.0063 17.9591 5.88235 17.6471 5.88235C17.335 5.88235 17.0358 6.0063 16.8152 6.22693C16.5945 6.44756 16.4706 6.7468 16.4706 7.05882V9.41177H14.1176C13.8056 9.41177 13.5064 9.53571 13.2858 9.75635C13.0651 9.97698 12.9412 10.2762 12.9412 10.5882C12.9412 10.9003 13.0651 11.1995 13.2858 11.4201C13.5064 11.6408 13.8056 11.7647 14.1176 11.7647H16.4706V14.1176C16.4706 14.4297 16.5945 14.7289 16.8152 14.9495C17.0358 15.1702 17.335 15.2941 17.6471 15.2941C17.9591 15.2941 18.2583 15.1702 18.479 14.9495C18.6996 14.7289 18.8235 14.4297 18.8235 14.1176V11.7647H21.1765C21.4885 11.7647 21.7877 11.6408 22.0084 11.4201C22.229 11.1995 22.3529 10.9003 22.3529 10.5882C22.3529 10.2762 22.229 9.97698 22.0084 9.75635C21.7877 9.53571 21.4885 9.41177 21.1765 9.41177Z" fill="#02378B"/>
</svg>
